<?xml version="1.0" encoding="UTF-8" standalone="no"?>
<!DOCTYPE svg PUBLIC "-//W3C//DTD SVG 1.1//EN"
 "http://www.w3.org/Graphics/SVG/1.1/DTD/svg11.dtd">
<!-- Generated by graphviz version 2.42.4 (0)
 -->
<!-- Title: M116 Pages: 1 -->
<svg width="1993pt" height="305pt"
 viewBox="0.00 0.00 1993.40 305.40" xmlns="http://www.w3.org/2000/svg" xmlns:xlink="http://www.w3.org/1999/xlink">
<g id="graph0" class="graph" transform="scale(1 1) rotate(0) translate(25.2 280.2)">
<title>M116</title>
<polygon fill="white" stroke="transparent" points="-25.2,25.2 -25.2,-280.2 1968.2,-280.2 1968.2,25.2 -25.2,25.2"/>
<text text-anchor="middle" x="971.5" y="-235" font-family="Arial" font-size="20.00" fill="#16324f">M1.16 — Acquisition Source, Marketing Attribution &amp; Merchant Acquisition Cost Foundations</text>
<g id="clust1" class="cluster">
<title>cluster_up</title>
<path fill="white" stroke="#a8c7d4" d="M12,-8C12,-8 244,-8 244,-8 250,-8 256,-14 256,-20 256,-20 256,-200 256,-200 256,-206 250,-212 244,-212 244,-212 12,-212 12,-212 6,-212 0,-206 0,-200 0,-200 0,-20 0,-20 0,-14 6,-8 12,-8"/>
<text text-anchor="middle" x="128" y="-192" font-family="Arial" font-size="20.00" fill="#16324f">Accepted immutable inputs</text>
</g>
<!-- m12 -->
<g id="node1" class="node">
<title>m12</title>
<path fill="#e9f4f5" stroke="#56758f" d="M186.5,-174C186.5,-174 68.5,-174 68.5,-174 62.5,-174 56.5,-168 56.5,-162 56.5,-162 56.5,-150 56.5,-150 56.5,-144 62.5,-138 68.5,-138 68.5,-138 186.5,-138 186.5,-138 192.5,-138 198.5,-144 198.5,-150 198.5,-150 198.5,-162 198.5,-162 198.5,-168 192.5,-174 186.5,-174"/>
<text text-anchor="middle" x="127.5" y="-159" font-family="Arial" font-size="10.00" fill="#17324d">M1.2 / M1.3</text>
<text text-anchor="middle" x="127.5" y="-148" font-family="Arial" font-size="10.00" fill="#17324d">Parent channel + application</text>
</g>
<!-- source -->
<g id="node4" class="node">
<title>source</title>
<path fill="#e8f3f1" stroke="#56758f" d="M429,-174C429,-174 314,-174 314,-174 308,-174 302,-168 302,-162 302,-162 302,-150 302,-150 302,-144 308,-138 314,-138 314,-138 429,-138 429,-138 435,-138 441,-144 441,-150 441,-150 441,-162 441,-162 441,-168 435,-174 429,-174"/>
<text text-anchor="middle" x="371.5" y="-159" font-family="Arial" font-size="10.00" fill="#17324d">18 governed source profiles</text>
<text text-anchor="middle" x="371.5" y="-148" font-family="Arial" font-size="10.00" fill="#17324d">20 acquisition campaigns</text>
</g>
<!-- m12&#45;&gt;source -->
<g id="edge1" class="edge">
<title>m12&#45;&gt;source</title>
<path fill="none" stroke="#56758f" stroke-width="1.3" d="M198.82,-156C228.79,-156 263.83,-156 294.41,-156"/>
<polygon fill="#56758f" stroke="#56758f" stroke-width="1.3" points="294.67,-158.45 301.67,-156 294.67,-153.55 294.67,-158.45"/>
</g>
<!-- m114 -->
<g id="node2" class="node">
<title>m114</title>
<path fill="#e9f4f5" stroke="#56758f" d="M189.5,-113C189.5,-113 65.5,-113 65.5,-113 59.5,-113 53.5,-107 53.5,-101 53.5,-101 53.5,-89 53.5,-89 53.5,-83 59.5,-77 65.5,-77 65.5,-77 189.5,-77 189.5,-77 195.5,-77 201.5,-83 201.5,-89 201.5,-89 201.5,-101 201.5,-101 201.5,-107 195.5,-113 189.5,-113"/>
<text text-anchor="middle" x="127.5" y="-98" font-family="Arial" font-size="10.00" fill="#17324d">M1.14</text>
<text text-anchor="middle" x="127.5" y="-87" font-family="Arial" font-size="10.00" fill="#17324d">Legacy acquisition&#45;cost proxy</text>
</g>
<!-- cost -->
<g id="node9" class="node">
<title>cost</title>
<path fill="#e8f3f1" stroke="#56758f" d="M1164,-140.5C1164,-140.5 1013,-140.5 1013,-140.5 1007,-140.5 1001,-134.5 1001,-128.5 1001,-128.5 1001,-107.5 1001,-107.5 1001,-101.5 1007,-95.5 1013,-95.5 1013,-95.5 1164,-95.5 1164,-95.5 1170,-95.5 1176,-101.5 1176,-107.5 1176,-107.5 1176,-128.5 1176,-128.5 1176,-134.5 1170,-140.5 1164,-140.5"/>
<text text-anchor="middle" x="1088.5" y="-126.5" font-family="Arial" font-size="10.00" fill="#17324d">Cost allocation + cent reconciliation</text>
<text text-anchor="middle" x="1088.5" y="-115.5" font-family="Arial" font-size="10.00" fill="#17324d">M1.14 overlap + evidence gates</text>
<text text-anchor="middle" x="1088.5" y="-104.5" font-family="Arial" font-size="10.00" fill="#17324d">750 snapshots / 9,000 components</text>
</g>
<!-- m114&#45;&gt;cost -->
<g id="edge2" class="edge">
<title>m114&#45;&gt;cost</title>
<path fill="none" stroke="#56758f" stroke-width="1.3" d="M201.71,-93.57C284,-92.1 421.58,-90 540,-90 540,-90 540,-90 702,-90 801.62,-90 915.35,-99.42 993.31,-107.33"/>
<polygon fill="#56758f" stroke="#56758f" stroke-width="1.3" points="993.53,-109.81 1000.74,-108.09 994.03,-104.94 993.53,-109.81"/>
</g>
<!-- m115 -->
<g id="node3" class="node">
<title>m115</title>
<path fill="#e9f4f5" stroke="#56758f" d="M194,-52C194,-52 61,-52 61,-52 55,-52 49,-46 49,-40 49,-40 49,-28 49,-28 49,-22 55,-16 61,-16 61,-16 194,-16 194,-16 200,-16 206,-22 206,-28 206,-28 206,-40 206,-40 206,-46 200,-52 194,-52"/>
<text text-anchor="middle" x="127.5" y="-37" font-family="Arial" font-size="10.00" fill="#17324d">M1.15</text>
<text text-anchor="middle" x="127.5" y="-26" font-family="Arial" font-size="10.00" fill="#17324d">Accepted consumption contract</text>
</g>
<!-- integrated -->
<g id="node11" class="node">
<title>integrated</title>
<path fill="#dceaf3" stroke="#2e5d7b" d="M1666,-87.5C1666,-87.5 1468,-87.5 1468,-87.5 1462,-87.5 1456,-81.5 1456,-75.5 1456,-75.5 1456,-54.5 1456,-54.5 1456,-48.5 1462,-42.5 1468,-42.5 1468,-42.5 1666,-42.5 1666,-42.5 1672,-42.5 1678,-48.5 1678,-54.5 1678,-54.5 1678,-75.5 1678,-75.5 1678,-81.5 1672,-87.5 1666,-87.5"/>
<text text-anchor="middle" x="1567" y="-73.5" font-family="Arial" font-size="10.00" fill="#17324d">Read&#45;only integrated consumption</text>
<text text-anchor="middle" x="1567" y="-62.5" font-family="Arial" font-size="10.00" fill="#17324d">M1.15 scenario rows × M1.16 application rows</text>
<text text-anchor="middle" x="1567" y="-51.5" font-family="Arial" font-size="10.00" fill="#17324d">1,500 rows</text>
</g>
<!-- m115&#45;&gt;integrated -->
<g id="edge3" class="edge">
<title>m115&#45;&gt;integrated</title>
<path fill="none" stroke="#56758f" stroke-width="1.3" d="M206.24,-34.9C288.98,-35.79 423.73,-37 540,-37 540,-37 540,-37 1089.5,-37 1212.18,-37 1352.33,-46.36 1448.71,-54.26"/>
<polygon fill="#56758f" stroke="#56758f" stroke-width="1.3" points="1448.68,-56.72 1455.86,-54.85 1449.09,-51.83 1448.68,-56.72"/>
</g>
<!-- funnel -->
<g id="node5" class="node">
<title>funnel</title>
<path fill="#f1f7fa" stroke="#56758f" d="M575,-225C575,-225 507,-225 507,-225 501,-225 495,-219 495,-213 495,-213 495,-201 495,-201 495,-195 501,-189 507,-189 507,-189 575,-189 575,-189 581,-189 587,-195 587,-201 587,-201 587,-213 587,-213 587,-219 581,-225 575,-225"/>
<text text-anchor="middle" x="541" y="-210" font-family="Arial" font-size="10.00" fill="#17324d">Campaign funnel</text>
<text text-anchor="middle" x="541" y="-199" font-family="Arial" font-size="10.00" fill="#17324d">120 stage rows</text>
</g>
<!-- source&#45;&gt;funnel -->
<g id="edge4" class="edge">
<title>source&#45;&gt;funnel</title>
<path fill="none" stroke="#56758f" stroke-width="1.3" d="M432.03,-174.12C450.29,-179.68 470.23,-185.76 487.95,-191.15"/>
<polygon fill="#56758f" stroke="#56758f" stroke-width="1.3" points="487.48,-193.57 494.89,-193.26 488.9,-188.88 487.48,-193.57"/>
</g>
<!-- ledger -->
<g id="node6" class="node">
<title>ledger</title>
<path fill="#f1f7fa" stroke="#56758f" d="M566,-164C566,-164 516,-164 516,-164 510,-164 504,-158 504,-152 504,-152 504,-140 504,-140 504,-134 510,-128 516,-128 516,-128 566,-128 566,-128 572,-128 578,-134 578,-140 578,-140 578,-152 578,-152 578,-158 572,-164 566,-164"/>
<text text-anchor="middle" x="541" y="-149" font-family="Arial" font-size="10.00" fill="#17324d">Cost ledger</text>
<text text-anchor="middle" x="541" y="-138" font-family="Arial" font-size="10.00" fill="#17324d">40 cost lines</text>
</g>
<!-- source&#45;&gt;ledger -->
<g id="edge5" class="edge">
<title>source&#45;&gt;ledger</title>
<path fill="none" stroke="#56758f" stroke-width="1.3" d="M441.11,-151.9C459.93,-150.78 479.8,-149.59 496.75,-148.58"/>
<polygon fill="#56758f" stroke="#56758f" stroke-width="1.3" points="496.98,-151.02 503.82,-148.16 496.69,-146.13 496.98,-151.02"/>
</g>
<!-- touch -->
<g id="node7" class="node">
<title>touch</title>
<path fill="#fff8e8" stroke="#c6a14a" d="M749,-223C749,-223 653,-223 653,-223 647,-223 641,-217 641,-211 641,-211 641,-199 641,-199 641,-193 647,-187 653,-187 653,-187 749,-187 749,-187 755,-187 761,-193 761,-199 761,-199 761,-211 761,-211 761,-217 755,-223 749,-223"/>
<text text-anchor="middle" x="701" y="-208" font-family="Arial" font-size="10.00" fill="#17324d">Application touchpoints</text>
<text text-anchor="middle" x="701" y="-197" font-family="Arial" font-size="10.00" fill="#17324d">1,075 bounded rows</text>
</g>
<!-- funnel&#45;&gt;touch -->
<g id="edge6" class="edge">
<title>funnel&#45;&gt;touch</title>
<path fill="none" stroke="#56758f" stroke-width="1.3" d="M587.28,-206.43C601.75,-206.24 618.08,-206.04 633.72,-205.84"/>
<polygon fill="#56758f" stroke="#56758f" stroke-width="1.3" points="633.89,-208.29 640.86,-205.75 633.82,-203.39 633.89,-208.29"/>
</g>
<!-- ledger&#45;&gt;cost -->
<g id="edge8" class="edge">
<title>ledger&#45;&gt;cost</title>
<path fill="none" stroke="#56758f" stroke-width="1.3" d="M578.21,-144.14C661.91,-139.84 870.98,-129.11 993.65,-122.82"/>
<polygon fill="#56758f" stroke="#56758f" stroke-width="1.3" points="994.01,-125.25 1000.88,-122.45 993.76,-120.36 994.01,-125.25"/>
</g>
<!-- attr -->
<g id="node8" class="node">
<title>attr</title>
<path fill="#fff8e8" stroke="#c6a14a" d="M935,-222C935,-222 827,-222 827,-222 821,-222 815,-216 815,-210 815,-210 815,-198 815,-198 815,-192 821,-186 827,-186 827,-186 935,-186 935,-186 941,-186 947,-192 947,-198 947,-198 947,-210 947,-210 947,-216 941,-222 935,-222"/>
<text text-anchor="middle" x="881" y="-207" font-family="Arial" font-size="10.00" fill="#17324d">Primary attribution</text>
<text text-anchor="middle" x="881" y="-196" font-family="Arial" font-size="10.00" fill="#17324d">750 application snapshots</text>
</g>
<!-- touch&#45;&gt;attr -->
<g id="edge7" class="edge">
<title>touch&#45;&gt;attr</title>
<path fill="none" stroke="#56758f" stroke-width="1.3" d="M761.27,-204.67C776.18,-204.58 792.35,-204.49 807.81,-204.41"/>
<polygon fill="#56758f" stroke="#56758f" stroke-width="1.3" points="807.87,-206.86 814.86,-204.37 807.85,-201.96 807.87,-206.86"/>
</g>
<!-- attr&#45;&gt;cost -->
<g id="edge9" class="edge">
<title>attr&#45;&gt;cost</title>
<path fill="none" stroke="#56758f" stroke-width="1.3" d="M925.08,-185.97C954.53,-173.65 993.98,-157.14 1026.63,-143.47"/>
<polygon fill="#56758f" stroke="#56758f" stroke-width="1.3" points="1027.97,-145.57 1033.49,-140.6 1026.08,-141.05 1027.97,-145.57"/>
</g>
<!-- latest -->
<g id="node10" class="node">
<title>latest</title>
<path fill="#dceaf3" stroke="#2e5d7b" d="M1390,-113C1390,-113 1242,-113 1242,-113 1236,-113 1230,-107 1230,-101 1230,-101 1230,-89 1230,-89 1230,-83 1236,-77 1242,-77 1242,-77 1390,-77 1390,-77 1396,-77 1402,-83 1402,-89 1402,-89 1402,-101 1402,-101 1402,-107 1396,-113 1390,-113"/>
<text text-anchor="middle" x="1316" y="-98" font-family="Arial" font-size="10.00" fill="#17324d">M1.16 companion contract</text>
<text text-anchor="middle" x="1316" y="-87" font-family="Arial" font-size="10.00" fill="#17324d">750 latest + 750 immutable archive</text>
</g>
<!-- cost&#45;&gt;latest -->
<g id="edge10" class="edge">
<title>cost&#45;&gt;latest</title>
<path fill="none" stroke="#56758f" stroke-width="1.3" d="M1176.04,-109.17C1191.33,-107.61 1207.31,-105.98 1222.75,-104.41"/>
<polygon fill="#56758f" stroke="#56758f" stroke-width="1.3" points="1223.09,-106.84 1229.81,-103.69 1222.6,-101.96 1223.09,-106.84"/>
</g>
<!-- latest&#45;&gt;integrated -->
<g id="edge11" class="edge">
<title>latest&#45;&gt;integrated</title>
<path fill="none" stroke="#56758f" stroke-width="1.3" d="M1402.34,-84.72C1417.24,-82.92 1432.96,-81.03 1448.54,-79.15"/>
<polygon fill="#56758f" stroke="#56758f" stroke-width="1.3" points="1449.03,-81.56 1455.69,-78.29 1448.44,-76.7 1449.03,-81.56"/>
</g>
<!-- m117 -->
<g id="node12" class="node">
<title>m117</title>
<path fill="#f3f4f5" stroke="#7a8791" stroke-dasharray="5,2" d="M1931,-87.5C1931,-87.5 1744,-87.5 1744,-87.5 1738,-87.5 1732,-81.5 1732,-75.5 1732,-75.5 1732,-54.5 1732,-54.5 1732,-48.5 1738,-42.5 1744,-42.5 1744,-42.5 1931,-42.5 1931,-42.5 1937,-42.5 1943,-48.5 1943,-54.5 1943,-54.5 1943,-75.5 1943,-75.5 1943,-81.5 1937,-87.5 1931,-87.5"/>
<text text-anchor="middle" x="1837.5" y="-73.5" font-family="Arial" font-size="10.00" fill="#17324d">M1.17</text>
<text text-anchor="middle" x="1837.5" y="-62.5" font-family="Arial" font-size="10.00" fill="#17324d">End&#45;to&#45;End QA, Evidence &amp; G2 Acceptance</text>
<text text-anchor="middle" x="1837.5" y="-51.5" font-family="Arial" font-size="10.00" fill="#17324d">(planned; not built)</text>
</g>
<!-- integrated&#45;&gt;m117 -->
<g id="edge12" class="edge">
<title>integrated&#45;&gt;m117</title>
<path fill="none" stroke="#56758f" stroke-width="1.3" d="M1678.37,-65C1693.67,-65 1709.4,-65 1724.73,-65"/>
<polygon fill="#56758f" stroke="#56758f" stroke-width="1.3" points="1724.74,-67.45 1731.74,-65 1724.74,-62.55 1724.74,-67.45"/>
</g>
</g>
</svg>
